<?xml version="1.0" encoding="UTF-8"?>
<svg id="Layer_2" data-name="Layer 2" xmlns="http://www.w3.org/2000/svg" viewBox="0 0 968 378.56">
  <defs>
    <style>
      .cls-1 {
        stroke-width: 0px;
      }
    </style>
  </defs>
  <g id="Layer_1-2" data-name="Layer 1">
    <g>
      <path class="cls-1" d="M219.32,206.49h91.57v132.22c-19.06,12.81-40.8,22.64-65.21,29.48-24.42,6.85-48.1,10.28-71.02,10.28-25.32,0-48.62-3.95-69.91-11.84-21.3-7.89-39.76-19.13-55.39-33.72-15.64-14.59-27.77-31.86-36.41-51.82C4.31,261.14,0,239.1,0,214.98s4.31-46.15,12.95-66.11c8.64-19.95,20.85-37.22,36.63-51.81,15.78-14.59,34.47-25.84,56.06-33.73,21.59-7.89,45.34-11.84,71.25-11.84,30.97,0,58.58,5.22,82.86,15.64,24.27,10.42,44.29,25.31,60.08,44.67l-67.45,59.41c-9.83-11.32-20.48-19.88-31.94-25.69-11.47-5.81-24.2-8.71-38.19-8.71-11.62,0-22.11,1.79-31.49,5.36-9.38,3.57-17.35,8.79-23.9,15.63-6.55,6.86-11.61,15.05-15.19,24.57-3.57,9.54-5.36,20.4-5.36,32.61s1.79,22.27,5.36,31.94c3.58,9.68,8.64,17.94,15.19,24.79,6.55,6.85,14.36,12.14,23.45,15.86,9.08,3.72,19.28,5.58,30.6,5.58,11.91,0,23.52-2.01,34.84-6.03,1.18-.42,2.37-.87,3.57-1.36v-79.27Z"/>
      <polygon class="cls-1" points="850.13 195.53 783.86 261.82 745.02 222.98 638.65 329.34 572.66 262.78 678.74 156.7 654.61 132.57 654.61 .01 745.01 90.42 745.02 90.42 850.13 195.53"/>
      <path class="cls-1" d="M543.85,279.56c-9.15,3.73-20.79,5.59-34.96,5.59s-25.55-2.33-35.24-6.99c-9.7-4.66-17.16-11.66-22.37-20.97-1.39-2.48-2.59-5.09-3.6-7.83h125.29l81.64-81.64c-.21-.7-.43-1.42-.65-2.12-3.79-12.07-8.99-23.12-15.59-33.15-15.47-23.5-35.98-41.2-61.51-53.14-25.55-11.93-53.43-17.89-83.63-17.89-32.82,0-62.37,6.71-88.65,20.12-26.3,13.44-46.99,32.08-62.09,55.94-15.11,23.87-22.66,51.27-22.66,82.23s7.63,57.33,22.94,81.38c15.27,24.05,36.82,42.99,64.59,56.78,27.78,13.79,60.32,20.69,97.61,20.69,30.58,0,56.78-4.2,78.59-12.58,21.81-8.39,40.18-20.6,55.09-36.64l-66-66.56c-10.06,7.45-19.67,13.05-28.8,16.78ZM449.6,174.11c4.09-8.38,9.97-14.9,17.62-19.57,7.64-4.66,16.68-6.99,27.13-6.99s19.38,2.33,26.85,6.99c7.44,4.67,13.32,11.19,17.62,19.57,2.19,4.3,3.82,9.06,4.89,14.27h-98.79c1.02-5.21,2.58-9.97,4.68-14.27Z"/>
      <polygon class="cls-1" points="968 0 811.3 156.7 745.02 90.42 835.44 0 968 0"/>
      <line class="cls-1" x1="654.61" y1="164.95" x2="653.96" y2="165.6"/>
    </g>
  </g>
</svg>